<svg width="164" height="53" viewBox="0 0 164 53" fill="none" xmlns="http://www.w3.org/2000/svg">
<path d="M55.4291 10.2115C53.788 7.37794 48.9161 6.86386 41.6891 8.7489C38.2211 6.01345 34.0088 4.37935 29.5982 4.05841C25.1875 3.73746 20.7818 4.74446 16.952 6.94889C13.1223 9.15332 10.0451 12.4536 8.11926 16.4219C6.19342 20.3902 5.50773 24.8436 6.15106 29.2049C0.906614 34.4974 -1.07952 38.9566 0.560793 41.7883C1.5565 43.5075 3.69215 44.3766 6.84222 44.3766C8.8458 44.3394 10.8394 44.0853 12.7879 43.6188C13.2825 43.5082 13.7886 43.3822 14.2991 43.2494C17.7671 45.9856 21.9796 47.6202 26.3907 47.9415C30.8018 48.2628 35.2079 47.2558 39.0381 45.0512C42.8682 42.8465 45.9456 39.5459 47.8714 35.5771C49.7972 31.6083 50.4825 27.1544 49.8386 22.7927C50.2007 22.4286 50.5566 22.0583 50.906 21.682C55.3967 16.822 56.9607 12.8558 55.4291 10.2115ZM27.9949 5.90555C32.6674 5.91192 37.193 7.53346 40.8003 10.4937C44.4075 13.454 46.8731 17.5698 47.7766 22.1394C43.806 25.9917 38.4092 29.9506 32.3147 33.458C26.226 36.962 20.0936 39.6398 14.7649 41.1417C11.6666 38.4569 9.46505 34.8926 8.45517 30.9262C7.44529 26.9597 7.67525 22.7803 9.11427 18.9477C10.5533 15.1151 13.1327 11.8122 16.507 9.48136C19.8813 7.15048 23.8896 5.90285 27.9949 5.90555V5.90555ZM12.3677 41.7517C7.03949 42.9432 3.24721 42.5992 2.22342 40.8314C1.18428 39.0372 2.85579 35.5308 6.61183 31.4911C7.62045 35.3722 9.67314 38.9051 12.5484 41.7086C12.4884 41.7222 12.4272 41.7383 12.3677 41.7517V41.7517ZM27.9949 46.0942C23.9371 46.0983 19.9736 44.8745 16.6287 42.5846C21.7836 40.9871 27.5558 38.4064 33.2747 35.115C38.9947 31.8234 44.1245 28.1299 48.09 24.4775C48.1282 24.9806 48.1539 25.487 48.1539 25.9999C48.1478 31.3274 46.022 36.4349 42.2428 40.2021C38.4636 43.9692 33.3396 46.0882 27.9949 46.0942V46.0942ZM43.4408 10.2904C48.8371 9.06371 52.7263 9.37278 53.7664 11.1683C54.7905 12.9362 53.1931 16.3819 49.494 20.3854C49.4563 20.4261 49.4157 20.467 49.3778 20.5077C48.3689 16.6267 46.3161 13.094 43.4408 10.2907V10.2904Z" fill="#3F3697"/>
<path d="M74.696 5.2C77.112 5.2 78.96 5.64 80.24 6.52C81.536 7.4 82.184 8.776 82.184 10.648C82.184 11.624 82.008 12.464 81.656 13.168C81.32 13.856 80.824 14.424 80.168 14.872C79.512 15.304 78.712 15.624 77.768 15.832C76.824 16.04 75.744 16.144 74.528 16.144H73.016V22H69.992V5.608C70.696 5.448 71.472 5.344 72.32 5.296C73.184 5.232 73.976 5.2 74.696 5.2ZM74.912 7.816C74.144 7.816 73.512 7.84 73.016 7.888V13.552H74.48C75.936 13.552 77.056 13.352 77.84 12.952C78.624 12.536 79.016 11.76 79.016 10.624C79.016 10.08 78.912 9.624 78.704 9.256C78.496 8.888 78.208 8.6 77.84 8.392C77.472 8.184 77.032 8.04 76.52 7.96C76.024 7.864 75.488 7.816 74.912 7.816ZM89.1691 22.24C88.3051 22.224 87.5851 22.128 87.0091 21.952C86.4491 21.776 86.0011 21.528 85.6651 21.208C85.3291 20.872 85.0891 20.464 84.9451 19.984C84.8171 19.488 84.7531 18.928 84.7531 18.304V3.856L87.6571 3.376V17.752C87.6571 18.104 87.6811 18.4 87.7291 18.64C87.7931 18.88 87.8971 19.088 88.0411 19.264C88.1851 19.424 88.3771 19.552 88.6171 19.648C88.8731 19.728 89.1931 19.792 89.5771 19.84L89.1691 22.24ZM96.3421 19.96C97.2381 19.96 97.9181 19.912 98.3821 19.816V16.6C98.2221 16.552 97.9901 16.504 97.6861 16.456C97.3821 16.408 97.0461 16.384 96.6781 16.384C96.3581 16.384 96.0301 16.408 95.6941 16.456C95.3741 16.504 95.0781 16.592 94.8061 16.72C94.5501 16.848 94.3421 17.032 94.1821 17.272C94.0221 17.496 93.9421 17.784 93.9421 18.136C93.9421 18.824 94.1581 19.304 94.5901 19.576C95.0221 19.832 95.6061 19.96 96.3421 19.96ZM96.1021 9.136C97.0621 9.136 97.8701 9.256 98.5261 9.496C99.1821 9.736 99.7021 10.072 100.086 10.504C100.486 10.936 100.766 11.464 100.926 12.088C101.102 12.696 101.19 13.368 101.19 14.104V21.712C100.742 21.808 100.062 21.92 99.1501 22.048C98.2541 22.192 97.2381 22.264 96.1021 22.264C95.3501 22.264 94.6621 22.192 94.0381 22.048C93.4141 21.904 92.8781 21.672 92.4301 21.352C91.9981 21.032 91.6541 20.616 91.3981 20.104C91.1581 19.592 91.0381 18.96 91.0381 18.208C91.0381 17.488 91.1741 16.88 91.4461 16.384C91.7341 15.888 92.1181 15.488 92.5981 15.184C93.0781 14.864 93.6301 14.64 94.2541 14.512C94.8941 14.368 95.5581 14.296 96.2461 14.296C96.5661 14.296 96.9021 14.32 97.2541 14.368C97.6061 14.4 97.9821 14.464 98.3821 14.56V14.08C98.3821 13.744 98.3421 13.424 98.2621 13.12C98.1821 12.816 98.0381 12.552 97.8301 12.328C97.6381 12.088 97.3741 11.904 97.0381 11.776C96.7181 11.648 96.3101 11.584 95.8141 11.584C95.1421 11.584 94.5261 11.632 93.9661 11.728C93.4061 11.824 92.9501 11.936 92.5981 12.064L92.2381 9.712C92.6061 9.584 93.1421 9.456 93.8461 9.328C94.5501 9.2 95.3021 9.136 96.1021 9.136ZM104.746 9.856C105.306 9.696 106.034 9.544 106.93 9.4C107.826 9.256 108.818 9.184 109.906 9.184C110.93 9.184 111.786 9.328 112.474 9.616C113.162 9.888 113.706 10.28 114.106 10.792C114.522 11.288 114.81 11.896 114.97 12.616C115.146 13.32 115.234 14.096 115.234 14.944V22H112.33V15.4C112.33 14.728 112.282 14.16 112.186 13.696C112.106 13.216 111.962 12.832 111.754 12.544C111.562 12.24 111.29 12.024 110.938 11.896C110.602 11.752 110.186 11.68 109.69 11.68C109.322 11.68 108.938 11.704 108.538 11.752C108.138 11.8 107.842 11.84 107.65 11.872V22H104.746V9.856ZM118.09 15.784C118.09 14.68 118.25 13.712 118.57 12.88C118.906 12.048 119.346 11.36 119.89 10.816C120.434 10.256 121.058 9.84 121.762 9.568C122.466 9.28 123.186 9.136 123.922 9.136C125.65 9.136 126.994 9.672 127.954 10.744C128.93 11.816 129.418 13.416 129.418 15.544C129.418 15.704 129.41 15.888 129.394 16.096C129.394 16.288 129.386 16.464 129.37 16.624H121.09C121.17 17.632 121.522 18.416 122.146 18.976C122.786 19.52 123.706 19.792 124.906 19.792C125.61 19.792 126.25 19.728 126.826 19.6C127.418 19.472 127.882 19.336 128.218 19.192L128.602 21.568C128.442 21.648 128.218 21.736 127.93 21.832C127.658 21.912 127.338 21.984 126.97 22.048C126.618 22.128 126.234 22.192 125.818 22.24C125.402 22.288 124.978 22.312 124.546 22.312C123.442 22.312 122.482 22.152 121.666 21.832C120.85 21.496 120.178 21.04 119.65 20.464C119.122 19.872 118.73 19.184 118.474 18.4C118.218 17.6 118.09 16.728 118.09 15.784ZM126.514 14.488C126.514 14.088 126.458 13.712 126.346 13.36C126.234 12.992 126.066 12.68 125.842 12.424C125.634 12.152 125.37 11.944 125.05 11.8C124.746 11.64 124.378 11.56 123.946 11.56C123.498 11.56 123.106 11.648 122.77 11.824C122.434 11.984 122.146 12.2 121.906 12.472C121.682 12.744 121.506 13.056 121.378 13.408C121.25 13.76 121.162 14.12 121.114 14.488H126.514ZM132.352 6.136L135.256 5.656V9.448H139.72V11.872H135.256V16.984C135.256 17.992 135.416 18.712 135.736 19.144C136.056 19.576 136.6 19.792 137.368 19.792C137.896 19.792 138.36 19.736 138.76 19.624C139.176 19.512 139.504 19.408 139.744 19.312L140.224 21.616C139.888 21.76 139.448 21.904 138.904 22.048C138.36 22.208 137.72 22.288 136.984 22.288C136.088 22.288 135.336 22.168 134.728 21.928C134.136 21.688 133.664 21.344 133.312 20.896C132.96 20.432 132.712 19.88 132.568 19.24C132.424 18.584 132.352 17.84 132.352 17.008V6.136ZM145.672 19.912C146.44 19.912 147 19.824 147.352 19.648C147.704 19.456 147.88 19.136 147.88 18.688C147.88 18.272 147.688 17.928 147.304 17.656C146.936 17.384 146.32 17.088 145.456 16.768C144.928 16.576 144.44 16.376 143.992 16.168C143.56 15.944 143.184 15.688 142.864 15.4C142.544 15.112 142.288 14.768 142.096 14.368C141.92 13.952 141.832 13.448 141.832 12.856C141.832 11.704 142.256 10.8 143.104 10.144C143.952 9.472 145.104 9.136 146.56 9.136C147.296 9.136 148 9.208 148.672 9.352C149.344 9.48 149.848 9.608 150.184 9.736L149.656 12.088C149.336 11.944 148.928 11.816 148.432 11.704C147.936 11.576 147.36 11.512 146.704 11.512C146.112 11.512 145.632 11.616 145.264 11.824C144.896 12.016 144.712 12.32 144.712 12.736C144.712 12.944 144.744 13.128 144.808 13.288C144.888 13.448 145.016 13.6 145.192 13.744C145.368 13.872 145.6 14.008 145.888 14.152C146.176 14.28 146.528 14.416 146.944 14.56C147.632 14.816 148.216 15.072 148.696 15.328C149.176 15.568 149.568 15.848 149.872 16.168C150.192 16.472 150.424 16.824 150.568 17.224C150.712 17.624 150.784 18.104 150.784 18.664C150.784 19.864 150.336 20.776 149.44 21.4C148.56 22.008 147.296 22.312 145.648 22.312C144.544 22.312 143.656 22.216 142.984 22.024C142.312 21.848 141.84 21.704 141.568 21.592L142.072 19.168C142.504 19.344 143.016 19.512 143.608 19.672C144.216 19.832 144.904 19.912 145.672 19.912ZM69.992 48V31.368H80.672V33.936H73.016V38.04H79.832V40.56H73.016V45.432H81.248V48H69.992ZM88.61 39.552L91.274 35.448H94.322L90.194 41.376C91.058 42.496 91.882 43.632 92.666 44.784C93.466 45.92 94.122 46.992 94.634 48H91.49C91.346 47.696 91.154 47.352 90.914 46.968C90.69 46.568 90.442 46.16 90.17 45.744C89.914 45.312 89.642 44.888 89.354 44.472C89.066 44.056 88.786 43.664 88.514 43.296C87.954 44.016 87.402 44.816 86.858 45.696C86.33 46.56 85.89 47.328 85.538 48H82.562C82.802 47.52 83.09 47.008 83.426 46.464C83.762 45.92 84.122 45.368 84.506 44.808C84.89 44.232 85.282 43.664 85.682 43.104C86.098 42.528 86.506 41.984 86.906 41.472L82.754 35.448H85.946L88.61 39.552ZM105.129 41.784C105.129 40.488 104.833 39.48 104.241 38.76C103.665 38.04 102.729 37.68 101.433 37.68C101.161 37.68 100.873 37.696 100.569 37.728C100.281 37.744 99.9931 37.792 99.7051 37.872V45.048C99.9611 45.224 100.297 45.392 100.713 45.552C101.145 45.696 101.601 45.768 102.081 45.768C103.137 45.768 103.905 45.408 104.385 44.688C104.881 43.968 105.129 43 105.129 41.784ZM108.105 41.736C108.105 42.696 107.977 43.576 107.721 44.376C107.481 45.176 107.129 45.864 106.665 46.44C106.201 47.016 105.617 47.464 104.913 47.784C104.225 48.104 103.441 48.264 102.561 48.264C101.969 48.264 101.425 48.192 100.929 48.048C100.433 47.904 100.025 47.744 99.7051 47.568V52.44H96.8011V35.856C97.3931 35.696 98.1211 35.544 98.9851 35.4C99.8491 35.256 100.761 35.184 101.721 35.184C102.713 35.184 103.601 35.336 104.385 35.64C105.169 35.944 105.833 36.384 106.377 36.96C106.937 37.52 107.361 38.208 107.649 39.024C107.953 39.824 108.105 40.728 108.105 41.736ZM115.466 48.24C114.602 48.224 113.882 48.128 113.306 47.952C112.746 47.776 112.298 47.528 111.962 47.208C111.626 46.872 111.386 46.464 111.242 45.984C111.114 45.488 111.05 44.928 111.05 44.304V29.856L113.954 29.376V43.752C113.954 44.104 113.978 44.4 114.026 44.64C114.09 44.88 114.194 45.088 114.338 45.264C114.482 45.424 114.674 45.552 114.914 45.648C115.17 45.728 115.49 45.792 115.874 45.84L115.466 48.24ZM129.575 41.712C129.575 42.704 129.431 43.608 129.143 44.424C128.855 45.24 128.447 45.936 127.919 46.512C127.391 47.088 126.751 47.536 125.999 47.856C125.263 48.176 124.447 48.336 123.551 48.336C122.655 48.336 121.839 48.176 121.103 47.856C120.367 47.536 119.735 47.088 119.207 46.512C118.679 45.936 118.263 45.24 117.959 44.424C117.671 43.608 117.527 42.704 117.527 41.712C117.527 40.72 117.671 39.824 117.959 39.024C118.263 38.208 118.679 37.512 119.207 36.936C119.751 36.36 120.391 35.92 121.127 35.616C121.863 35.296 122.671 35.136 123.551 35.136C124.431 35.136 125.239 35.296 125.975 35.616C126.727 35.92 127.367 36.36 127.895 36.936C128.423 37.512 128.831 38.208 129.119 39.024C129.423 39.824 129.575 40.72 129.575 41.712ZM126.599 41.712C126.599 40.464 126.327 39.48 125.783 38.76C125.255 38.024 124.511 37.656 123.551 37.656C122.591 37.656 121.839 38.024 121.295 38.76C120.767 39.48 120.503 40.464 120.503 41.712C120.503 42.976 120.767 43.976 121.295 44.712C121.839 45.448 122.591 45.816 123.551 45.816C124.511 45.816 125.255 45.448 125.783 44.712C126.327 43.976 126.599 42.976 126.599 41.712ZM139.719 38.064C139.479 37.984 139.143 37.904 138.711 37.824C138.295 37.728 137.807 37.68 137.247 37.68C136.927 37.68 136.583 37.712 136.215 37.776C135.863 37.84 135.615 37.896 135.471 37.944V48H132.567V36.048C133.127 35.84 133.823 35.648 134.655 35.472C135.503 35.28 136.439 35.184 137.463 35.184C137.655 35.184 137.879 35.2 138.135 35.232C138.391 35.248 138.647 35.28 138.903 35.328C139.159 35.36 139.407 35.408 139.647 35.472C139.887 35.52 140.079 35.568 140.223 35.616L139.719 38.064ZM141.55 41.784C141.55 40.68 141.71 39.712 142.03 38.88C142.366 38.048 142.806 37.36 143.35 36.816C143.894 36.256 144.518 35.84 145.222 35.568C145.926 35.28 146.646 35.136 147.382 35.136C149.11 35.136 150.454 35.672 151.414 36.744C152.39 37.816 152.878 39.416 152.878 41.544C152.878 41.704 152.87 41.888 152.854 42.096C152.854 42.288 152.846 42.464 152.83 42.624H144.55C144.63 43.632 144.982 44.416 145.606 44.976C146.246 45.52 147.166 45.792 148.366 45.792C149.07 45.792 149.71 45.728 150.286 45.6C150.878 45.472 151.342 45.336 151.678 45.192L152.062 47.568C151.902 47.648 151.678 47.736 151.39 47.832C151.118 47.912 150.798 47.984 150.43 48.048C150.078 48.128 149.694 48.192 149.278 48.24C148.862 48.288 148.438 48.312 148.006 48.312C146.902 48.312 145.942 48.152 145.126 47.832C144.31 47.496 143.638 47.04 143.11 46.464C142.582 45.872 142.19 45.184 141.934 44.4C141.678 43.6 141.55 42.728 141.55 41.784ZM149.974 40.488C149.974 40.088 149.918 39.712 149.806 39.36C149.694 38.992 149.526 38.68 149.302 38.424C149.094 38.152 148.83 37.944 148.51 37.8C148.206 37.64 147.838 37.56 147.406 37.56C146.958 37.56 146.566 37.648 146.23 37.824C145.894 37.984 145.606 38.2 145.366 38.472C145.142 38.744 144.966 39.056 144.838 39.408C144.71 39.76 144.622 40.12 144.574 40.488H149.974ZM163.109 38.064C162.869 37.984 162.533 37.904 162.101 37.824C161.685 37.728 161.197 37.68 160.637 37.68C160.317 37.68 159.973 37.712 159.605 37.776C159.253 37.84 159.005 37.896 158.861 37.944V48H155.957V36.048C156.517 35.84 157.213 35.648 158.045 35.472C158.893 35.28 159.829 35.184 160.853 35.184C161.045 35.184 161.269 35.2 161.525 35.232C161.781 35.248 162.037 35.28 162.293 35.328C162.549 35.36 162.797 35.408 163.037 35.472C163.277 35.52 163.469 35.568 163.613 35.616L163.109 38.064Z" fill="#3F3697"/>
</svg>
